<svg width="100" height="100" viewBox="0 0 100 100" fill="none" xmlns="http://www.w3.org/2000/svg">
  <rect width="100" height="100" rx="30" fill="#3AA37E"/>
  
  <path d="M72 35C72 35 65 25 50 25C30 25 25 45 25 55C25 68 35 75 45 75C60 75 75 60 75 40C75 38.5 74.5 36.5 72 35ZM31 55C31 42 40 31 50 31C58 31 65 37 68 42C62 48 50 55 35 55C33.5 55 32 55 31 55ZM47 69C39 69 31 64 31 56C34 56 45 54 55 48C60 55 64 62 68 65C63 68 55 69 47 69Z" fill="white"/>
  
  <path d="M28 72C35 68 55 50 72 35" stroke="white" stroke-width="3" stroke-linecap="round"/>
</svg>